<svg width="16" height="20" viewBox="0 0 16 20" fill="none" xmlns="http://www.w3.org/2000/svg">
<path fill-rule="evenodd" clip-rule="evenodd" d="M0 2.75195C0 2.02261 0.316071 1.32313 0.87868 0.80741C1.44129 0.291685 2.20435 0.00195313 3 0.00195312H13C13.7956 0.00195313 14.5587 0.291685 15.1213 0.80741C15.6839 1.32313 16 2.02261 16 2.75195V17.4443C16 18.5626 14.62 19.2135 13.628 18.5635L8 14.8785L2.372 18.5635C1.379 19.2144 0 18.5635 0 17.4452V2.75195ZM3 1.83529C2.73478 1.83529 2.48043 1.93186 2.29289 2.10377C2.10536 2.27568 2 2.50884 2 2.75195V16.5542L7.128 13.1965C7.38243 13.0298 7.68731 12.9402 8 12.9402C8.31269 12.9402 8.61757 13.0298 8.872 13.1965L14 16.5542V2.75195C14 2.50884 13.8946 2.27568 13.7071 2.10377C13.5196 1.93186 13.2652 1.83529 13 1.83529H3Z" fill="white"/>
</svg>
